<svg xmlns="http://www.w3.org/2000/svg" version="1.1" viewBox="293.78 422.1 435.13 177.33">
    <path d="M 423 423.095 C 386.833 426.623, 380.153 427.588, 347.070 434.055 C 324.030 438.559, 316 440.662, 316 442.194 C 316 442.772, 318.711 446.143, 322.024 449.685 L 328.048 456.124 326.107 458.812 C 325.040 460.290, 320.266 465.775, 315.500 471 C 301.461 486.388, 301.500 486.308, 301.500 499.929 L 301.500 511.500 297.654 517.715 L 293.808 523.930 294.863 537.715 C 296.062 553.374, 298.230 560.572, 303.658 566.914 C 307.136 570.977, 311.980 574, 315.012 574 C 316.482 574, 316.788 572.503, 317.233 563.116 C 317.706 553.127, 318.057 551.591, 321.504 544.425 C 326.060 534.952, 332.578 528.258, 341.297 524.097 C 367.092 511.786, 396.527 525.474, 403.596 553.067 C 405.206 559.354, 405.159 570.214, 403.504 574.250 C 402.823 575.910, 408.127 576, 506.682 576 L 610.577 576 610.583 565.250 C 610.589 555.331, 610.844 553.901, 613.885 546.758 C 617.942 537.226, 624.118 530.141, 632.348 525.577 C 640.319 521.156, 645.774 519.765, 655 519.802 C 663.431 519.835, 671.736 522.408, 678.660 527.134 C 691.671 536.012, 699.780 554.659, 697.308 570.013 C 696.770 573.353, 696.675 576.299, 697.097 576.560 C 698.239 577.266, 715.111 575.199, 719.070 573.869 C 725.131 571.833, 725.656 570.840, 726.403 559.995 C 726.780 554.522, 727.557 548.702, 728.129 547.060 C 728.707 545.403, 729.020 538.834, 728.835 532.288 C 728.532 521.643, 728.221 519.949, 725.620 514.816 C 720.736 505.177, 711.699 497.524, 697.454 490.960 C 684.470 484.977, 676.846 482.835, 656.500 479.453 C 647.555 477.967, 645.234 477.096, 634.500 471.201 C 614.256 460.083, 607.039 456.289, 592.500 449.125 C 577.526 441.747, 569.457 438, 568.544 438 C 568.233 438, 566.071 437.150, 563.739 436.111 C 549.067 429.571, 536.210 426.550, 510 423.483 C 496.197 421.868, 438.230 421.609, 423 423.095 M 428.500 432.131 C 406.282 433.574, 403.030 434.302, 399.163 438.703 C 392.148 446.685, 380 463.326, 380 464.952 C 380 466.327, 382.737 467.259, 394.250 469.805 C 411.732 473.672, 419.336 474.637, 443 475.994 C 453.175 476.577, 464.375 477.310, 467.889 477.622 L 474.277 478.189 473.674 471.344 C 473.342 467.580, 472.578 458.425, 471.975 451 C 471.372 443.575, 470.661 436.038, 470.394 434.250 L 469.909 431 455.705 431.144 C 447.892 431.223, 435.650 431.667, 428.500 432.131 M 483.588 431.858 C 483.296 432.329, 483.431 434.017, 483.887 435.608 C 484.343 437.198, 486.436 447.275, 488.537 458 C 490.639 468.725, 492.697 477.896, 493.110 478.381 C 493.524 478.866, 503.906 479.874, 516.181 480.622 C 528.456 481.370, 548.758 482.675, 561.295 483.522 C 573.833 484.369, 584.519 484.797, 585.042 484.474 C 586.853 483.355, 582.803 477.711, 573.648 468.594 C 561.334 456.331, 542.123 439.131, 538.827 437.418 C 535.265 435.566, 520.689 433.359, 503.443 432.059 C 486.431 430.777, 484.269 430.755, 483.588 431.858 M 558 443.638 C 558 444.909, 597.404 482.526, 599.029 482.807 C 600.882 483.127, 622.824 479.227, 624.299 478.315 C 625.521 477.560, 622.805 475.855, 605.740 466.668 C 583.177 454.521, 558 442.376, 558 443.638 M 677 498.416 C 677 500.030, 681.857 504.053, 690.303 509.432 C 694.532 512.126, 698.673 513.682, 705.571 515.167 C 714.378 517.064, 715.210 517.092, 717.519 515.580 C 725.339 510.456, 712.940 502.287, 691.500 498.439 C 681.178 496.586, 677 496.579, 677 498.416 M 352.746 528.086 C 342.244 530.561, 332.602 538.334, 328.127 547.932 C 324.399 555.928, 323.947 568.147, 327.071 576.475 C 329.757 583.635, 337.348 592.129, 344.136 595.569 C 357.459 602.320, 374.531 600.004, 385.419 589.968 C 393.299 582.705, 396.969 574.446, 396.989 563.932 C 397.035 540.412, 375.269 522.777, 352.746 528.086 M 644.811 528.470 C 627.840 533.144, 617.069 548.589, 618.224 566.593 C 618.847 576.292, 622.332 583.353, 629.766 589.979 C 637.912 597.239, 644.029 599.292, 656 598.784 C 663.396 598.471, 666.473 597.876, 669.892 596.098 C 676.424 592.702, 683.274 585.794, 686.573 579.278 C 689.195 574.098, 689.498 572.516, 689.499 564 C 689.500 555.824, 689.133 553.717, 686.865 548.880 C 679.071 532.258, 661.689 523.822, 644.811 528.470 M 355.685 545.967 C 342.028 550.307, 338.530 567.234, 349.330 576.716 C 361.042 587, 380.244 577.299, 378.759 561.848 C 377.678 550.597, 366.130 542.649, 355.685 545.967 M 645.961 547.751 C 632.551 554.757, 633.095 573.788, 646.872 579.582 C 656.012 583.425, 665.450 579.853, 670.097 570.790 C 672.575 565.959, 672.506 561.054, 669.883 555.474 C 667.474 550.350, 664.271 547.717, 658.500 546.119 C 652.822 544.546, 651.856 544.672, 645.961 547.751" stroke="none" fill="#000" fill-rule="evenodd"/>
</svg>