<?xml version="1.0" encoding="UTF-8"?>
<svg width="64px" height="64px" viewBox="0 0 64 64" version="1.1"
    xmlns="http://www.w3.org/2000/svg"
    xmlns:xlink="http://www.w3.org/1999/xlink">
    <title>vehicle_active</title>
    <g id="vehicle_active" stroke="none" stroke-width="1" fill="none" fill-rule="evenodd">
        <path d="M32,8 C43.045695,8 52,16.954305 52,28 C52,39.045695 43.045695,48 32,48 C20.954305,48 12,39.045695 12,28 C12,16.954305 20.954305,8 32,8 Z M32,10 C22.0588745,10 14,18.0588745 14,28 C14,37.9411255 22.0588745,46 32,46 C41.9411255,46 50,37.9411255 50,28 C50,18.0588745 41.9411255,10 32,10 Z M33,16 C33.552285,16 34,16.447715 34,17 L34,27.585 L40.707,34.293 C41.098,34.684 41.098,35.316 40.707,35.707 C40.316,36.098 39.684,36.098 39.293,35.707 L32.293,28.707 C32.105,28.519 32,28.265 32,28 L32,17 C32,16.447715 32.447715,16 33,16 Z M32,52 C34.209139,52 36,53.790861 36,56 C36,58.209139 34.209139,60 32,60 C29.790861,60 28,58.209139 28,56 C28,53.790861 29.790861,52 32,52 Z M32,54 C30.8954305,54 30,54.8954305 30,56 C30,57.1045695 30.8954305,58 32,58 C33.1045695,58 34,57.1045695 34,56 C34,54.8954305 33.1045695,54 32,54 Z" id="Combined-Shape" fill="#000000" fill-rule="nonzero"></path>
    </g>
</svg>