<svg version="1.2"
    xmlns="http://www.w3.org/2000/svg" viewBox="0 0 960 960" width="960" height="960">
    <path fill-rule="evenodd" d="m267.5 18.4c62.2 0 113 50.8 113 113.1v435.7l1.7 1.2c55 37.4 88.7 99.4 89.4 166.8v2.1c0 112.8-91.4 204.3-204.1 204.3-112.7 0-204.1-91.5-204.1-204.3 0-68.1 33.8-131 89.4-168.9l1.7-1.2v-435.7c0-61.6 49.8-112.1 111.1-113.1zm0 40c-40 0-72.9 32.9-72.9 73.1v446c0 7.4-3.9 14.3-10.2 18.2l-1.8 1.1c-48.7 29.6-79.2 82.4-79.2 140.5 0 90.8 73.5 164.3 164.1 164.3 90.7 0 164.1-73.5 164.1-164.3 0-58.1-30.4-110.9-79.1-140.5l-1.8-1.1c-6.3-3.9-10.2-10.8-10.2-18.2v-446c0-40.2-32.9-73.1-73-73.1zm32.2 292.6v268c53.2 14.3 92.3 62.7 92.3 120.3 0 68.9-55.9 124.7-125 124.7-69 0-125-55.8-125-124.7 0-57.6 39.2-106 92.4-120.3v-268z"/>
    <path fill-rule="evenodd" d="m354.6 302.3c2-1.4 0.5-3.7 2.6-5q11.3-7.3 23.2-13.6c49.4-26.6 106-41.7 166.1-41.7 194.1 0 351.5 157.4 351.5 351.5 0 194.1-157.4 351.5-351.5 351.5-59 0-114.6-14.5-163.4-40.2-6.9-3.6-24.3-4.9-20.3-11.5 0.4-0.7 68-77.1 89.4-134.7-7.1 35-23.2 72.7-50.4 110.8-3.1 4.3 9.3 4.8 14 7 39.8 18.3 84 28.6 130.7 28.6 172 0 311.5-139.5 311.5-311.5 0-172-139.5-311.5-311.5-311.5-60.9 0-117.7 17.5-165.7 47.7-5.7 3.6-17.9 4.7-16.8 11.3 0.4 2.4-23.5 235.3-1.1 239.9q2.3 0.5 4.6 1.1l-0.5-0.7c1-158.7 4.1-133.6 5.8-217.5m81.3 347.3l-86.6-129.1c52.1 13.3 88.7 65.3 89 133.8q-1-2.5-2.4-4.7zm-1.9 47.5c6.2-16.6 8.5-31.6 4.3-42.8 0 13.7-1.3 28-4.3 42.8z"/>
    <path fill-rule="evenodd" d="m547 344.5c137.6 0.3 249 111.7 249 249 0 137.5-111.7 249-249.5 249-33.6 0-65.6-6.6-94.9-18.6-7.6-3.2-21.6-2.4-22.3-10.5-0.6-6.7 14.6-6.2 13.1-99.8l-10-52.3c-0.1-11.1-65.3-79.3-54.2-79.3l10.8-8h138v-209.5c0-10.9 8.8-19.8 19.7-20z"/>
</svg>