<?xml version="1.0" encoding="UTF-8"?>
<svg width="64px" height="64px" viewBox="0 0 64 64" version="1.1"
    xmlns="http://www.w3.org/2000/svg"
    xmlns:xlink="http://www.w3.org/1999/xlink">
    <title>vehicle_online</title>
    <g id="vehicle_online" stroke="none" stroke-width="1" fill="none" fill-rule="evenodd">
        <path d="M32,8 C43.045695,8 52,16.954305 52,28 C52,28.552285 51.552285,29 51,29 C50.487164,29 50.064493,28.614237 50.006728,28.117249 L50,28 C50,18.0588745 41.9411255,10 32,10 C22.0588745,10 14,18.0588745 14,28 C14,28.552285 13.552285,29 13,29 C12.487164,29 12.064493,28.614237 12.006728,28.117249 L12,28 C12,16.954305 20.954305,8 32,8 Z M32,16 C38.627417,16 44,21.372583 44,28 C44,28.552285 43.552285,29 43,29 C42.487164,29 42.064493,28.614237 42.006728,28.117249 L42,28 C42,22.4771525 37.5228475,18 32,18 C26.4771525,18 22,22.4771525 22,28 C22,28.552285 21.552285,29 21,29 C20.487164,29 20.064493,28.614237 20.006728,28.117249 L20,28 C20,21.372583 25.372583,16 32,16 Z M32,24 C34.209139,24 36,25.790861 36,28 C36,28.552285 35.552285,29 35,29 C34.487164,29 34.064493,28.614237 34.006728,28.117249 L34,28 C34,26.8954305 33.1045695,26 32,26 C30.8954305,26 30,26.8954305 30,28 C30,28.552285 29.552285,29 29,29 C28.487164,29 28.064493,28.614237 28.006728,28.117249 L28,28 C28,25.790861 29.790861,24 32,24 Z M32,34 C34.209139,34 36,35.790861 36,38 L36,52 C36,54.209139 34.209139,56 32,56 C29.790861,56 28,54.209139 28,52 L28,38 C28,35.790861 29.790861,34 32,34 Z M32,36 C30.8954305,36 30,36.8954305 30,38 L30,52 C30,53.1045695 30.8954305,54 32,54 C33.1045695,54 34,53.1045695 34,52 L34,38 C34,36.8954305 33.1045695,36 32,36 Z" id="Combined-Shape" fill="#000000" fill-rule="nonzero"></path>
    </g>
</svg>