<svg version="1.2"
	xmlns="http://www.w3.org/2000/svg" viewBox="0 0 960 960" width="960" height="960">
	<style>
		.s0 { fill: #000000 } 
	</style>
	<g>
		<path fill-rule="evenodd" class="s0" d="m267 118c15.46 0 28 12.54 28 28v33h13c24.3 0 44 19.7 44 44l-0.01 79.34c55.9-37.48 123.15-59.34 195.51-59.34 194.13 0 351.5 157.37 351.5 351.5 0 194.13-157.37 351.5-351.5 351.5-125.61 0-235.84-65.89-297.99-164.99l-125.51-0.01c-24.3 0-44-19.7-44-44v-514c0-24.3 19.7-44 44-44h13v-33c0-15.46 12.54-28 28-28zm280.5 165c-172.04 0-311.5 139.46-311.5 311.5 0 172.04 139.46 311.5 311.5 311.5 172.04 0 311.5-139.46 311.5-311.5 0-172.04-139.46-311.5-311.5-311.5z"/>
		<path class="s0" d="m728 574h127c11.05 0 20 8.95 20 20 0 11.05-8.95 20-20 20h-127c-11.05 0-20-8.95-20-20 0-11.05 8.95-20 20-20zm0 0h127c11.05 0 20 8.95 20 20 0 11.05-8.95 20-20 20h-127c-11.05 0-20-8.95-20-20 0-11.05 8.95-20 20-20zm0 0h127c11.05 0 20 8.95 20 20 0 11.05-8.95 20-20 20h-127c-11.05 0-20-8.95-20-20 0-11.05 8.95-20 20-20z"/>
		<path class="s0" d="m240 574h127c11.05 0 20 8.95 20 20 0 11.05-8.95 20-20 20h-127c-11.05 0-20-8.95-20-20 0-11.05 8.95-20 20-20zm0 0h127c11.05 0 20 8.95 20 20 0 11.05-8.95 20-20 20h-127c-11.05 0-20-8.95-20-20 0-11.05 8.95-20 20-20zm0 0h127c11.05 0 20 8.95 20 20 0 11.05-8.95 20-20 20h-127c-11.05 0-20-8.95-20-20 0-11.05 8.95-20 20-20zm0 0h127c11.05 0 20 8.95 20 20 0 11.05-8.95 20-20 20h-127c-11.05 0-20-8.95-20-20 0-11.05 8.95-20 20-20z"/>
		<path class="s0" d="m527 413v-127c0-11.05 8.95-20 20-20 11.05 0 20 8.95 20 20v127c0 11.05-8.95 20-20 20-11.05 0-20-8.95-20-20zm0 0v-127c0-11.05 8.95-20 20-20 11.05 0 20 8.95 20 20v127c0 11.05-8.95 20-20 20-11.05 0-20-8.95-20-20zm0 0v-127c0-11.05 8.95-20 20-20 11.05 0 20 8.95 20 20v127c0 11.05-8.95 20-20 20-11.05 0-20-8.95-20-20z"/>
		<path class="s0" d="m527 901v-127c0-11.05 8.95-20 20-20 11.05 0 20 8.95 20 20v127c0 11.05-8.95 20-20 20-11.05 0-20-8.95-20-20zm0 0v-127c0-11.05 8.95-20 20-20 11.05 0 20 8.95 20 20v127c0 11.05-8.95 20-20 20-11.05 0-20-8.95-20-20zm0 0v-127c0-11.05 8.95-20 20-20 11.05 0 20 8.95 20 20v127c0 11.05-8.95 20-20 20-11.05 0-20-8.95-20-20zm0 0v-127c0-11.05 8.95-20 20-20 11.05 0 20 8.95 20 20v127c0 11.05-8.95 20-20 20-11.05 0-20-8.95-20-20z"/>
	</g>
</svg>