<svg version="1.2" xmlns="http://www.w3.org/2000/svg" viewBox="0 0 72 72" width="72" height="72">
    <style>.a,.b,.c{stroke:#000}.a{fill:none;stroke-width:5}.b{stroke-linecap:round}.c{fill:none;stroke-linecap:round;stroke-width:5}</style>
    <path class="a" d="m37.8 32.4c-6.9 8.9 3.4 17.1 1 24.7q-0.4 1.4-1.5 2.7"/>
    <path class="b" d="m35.8 24.3l-5.2 11.1h10.3z"/>
    <path class="a" d="m53.1 32.4c-6.9 8.9 3.4 17.1 1 24.7q-0.4 1.4-1.5 2.7"/>
    <path class="b" d="m51.1 24.3l-5.2 11.1h10.3z"/>
    <path class="a" d="m22.5 32.4c-7 8.9 3.4 17.1 1 24.7q-0.4 1.4-1.5 2.7"/>
    <path class="b" d="m20.5 24.3l-5.2 11.1h10.3z"/>
    <path fill-rule="evenodd" class="c" d="m3.8 15.5h64.1c0.8 0 1.4 0.6 1.4 1.3v31.8c0 0.8-0.6 1.4-1.4 1.4h-64.1c-0.7 0-1.3-0.6-1.3-1.4v-31.8c0-0.7 0.6-1.3 1.3-1.3z"/>
</svg>
