<svg xmlns="http://www.w3.org/2000/svg" xmlns:xlink="http://www.w3.org/1999/xlink" width="300" height="300" viewBox="0 0 300 300">
  <defs>
    <clipPath id="clip-cupra-logo">
      <rect width="300" height="300"/>
    </clipPath>
  </defs>
  <g id="cupra-logo" clip-path="url(#clip-cupra-logo)">
    <g id="cupra-logo-2" data-name="cupra-logo" transform="translate(-37.927 65.245)">
      <path id="Path_53" data-name="Path 53" d="M259.87,39.117Q239.836,48.923,219.8,58.725h-.01q12.215,4.673,24.417,9.381c5.039,1.942,11.016,4.38,13.215,10.334,2.26,6.112-1.064,11.567-4,16.166q-6.668,10.443-13.337,20.883-23.723,37.151-47.518,74.266-.043-11.451-.061-22.909v-.014q9.106-28.64,17.712-57.437,2.431-8.181,4.809-16.376c.953-3.292.337-5.263-2.83-6.832Q200.068,80.2,187.922,74.224,175.783,80.2,163.644,86.187c-3.166,1.569-3.782,3.54-2.83,6.832q2.382,8.2,4.815,16.376,8.566,28.809,17.712,57.437l0,.014q-.02,11.451-.061,22.909-23.815-37.1-47.518-74.266-6.668-10.437-13.331-20.883c-2.937-4.6-6.267-10.053-4.007-16.166,2.2-5.954,8.177-8.392,13.215-10.334q12.2-4.708,24.417-9.381h0q-20.04-9.8-40.07-19.608l-.019-.019q6.255,10.464,12.491,20.938Q118.118,64,107.8,67.974,86.107,34.006,64.456,0c41.111,14.583,82.185,29.278,123.469,43.371C229.214,29.278,270.282,14.583,311.4,0q-21.616,34.028-43.348,67.976Q257.734,64,247.4,60.038q6.241-10.472,12.491-20.938"/>
    </g>
  </g>
</svg>
