<svg version="1.2" xmlns="http://www.w3.org/2000/svg" viewBox="0 0 250 250">
    <path d="m197.8 68.6q-20.2 9.9-40.5 19.9 12.3 4.7 24.7 9.4c5.1 2 11.1 4.5 13.4 10.5 2.2 6.2-1.1 11.7-4.1 16.4q-6.7 10.5-13.5 21.1-24 37.6-48.1 75.2 0-11.6-0.1-23.2 9.3-29 18-58.2 2.4-8.2 4.8-16.5c1-3.4 0.4-5.4-2.8-6.9q-12.3-6.1-24.6-12.2-12.3 6.1-24.6 12.2c-3.2 1.5-3.8 3.5-2.8 6.9q2.4 8.3 4.8 16.5 8.7 29.2 18 58.2-0.1 11.6-0.1 23.2-24.1-37.6-48.1-75.2-6.8-10.5-13.5-21.1c-3-4.7-6.4-10.2-4.1-16.4 2.3-6 8.3-8.5 13.4-10.5q12.4-4.7 24.7-9.4-20.3-10-40.5-19.9h-0.1q6.4 10.6 12.7 21.2-10.5 4-20.9 8-22-34.4-43.9-68.8c41.6 14.8 83.2 29.6 125 43.9 41.8-14.3 83.4-29.1 125-43.9q-21.9 34.4-43.9 68.8-10.4-4-20.9-8 6.3-10.6 12.7-21.2"/>
</svg>
