<svg version="1.2"
    xmlns="http://www.w3.org/2000/svg" viewBox="0 0 1020 1020" width="1020" height="1020">
    <path d="m509.6 1019.8c282.2 0 509.4-227.2 509.4-509.5 0-282.2-227.2-509.4-509.4-509.4-282.2 0-509.4 227.2-509.4 509.4 0 282.3 227.2 509.5 509.4 509.5zm0-614.4c-3 0-4.1-3.1-6.1-6.1l-144.7-326c46.9-17.4 97.8-26.5 150.8-26.5 53 0 103.9 9.1 150.8 26.5l-144.7 326c-2 4.1-3 6.1-6.1 6.1zm-147.7 335.2c-3.1 0-4.1-3.1-6.1-6.1l-234.4-472.8c41.8-64.1 97.8-118.1 166.1-155.8l169.1 375.9c2.1 6.1 7.2 8.2 12.3 8.2h81.5c6.1 0 10.2-1.1 13.2-8.2l169.1-375.9c67.3 37.7 124.3 91.7 166.1 155.8l-236.4 472.8c-1 3-3 6.1-6.1 6.1-3 0-4.1-3.1-6.1-6.1l-88.6-201.7c-3.1-7.2-7.2-8.2-13.3-8.2h-81.5c-6.1 0-10.2 1-13.2 8.2l-85.6 201.7c-1 3-3.1 6.1-6.1 6.1zm147.7 232.3c-253.7 0-461.5-208.9-461.5-462.6 0-57 10.2-111 29.5-162l270 543.1c3.1 7.1 8.2 13.2 16.3 13.2 8.2 0 13.3-6.1 16.3-13.2l124.3-278.2c1-3 3.1-6.1 6.1-6.1 3.1 0 4.1 3.1 6.1 6.1l124.3 278.2c3.1 7.1 8.2 13.2 16.3 13.2 8.2 0 13.3-6.1 16.3-13.2l270-543.1c19.4 51 29.6 105 29.6 162-2.1 253.7-209.9 462.6-463.6 462.6z"/>
</svg>