<svg xmlns="http://www.w3.org/2000/svg" version="1.1" viewBox="48.15 52.2 1249.53 639.78"><path d="M 471.500 53.057 C 311.103 57.252, 220.598 74.610, 144.500 115.773 C 132.926 122.033, 129.356 125.061, 128.439 129.391 C 125.843 141.651, 121.151 152.467, 109.562 172.905 C 102.828 184.782, 94.694 199.450, 91.488 205.500 C 83.737 220.126, 80.831 224.285, 72.978 232 C 65.318 239.524, 64.769 241.037, 62.993 259.500 C 62.358 266.100, 59.604 283.200, 56.874 297.500 C 51.542 325.423, 49.608 345.565, 48.316 386.630 C 47.296 419.057, 51.306 444.644, 60.520 464.500 C 62.645 469.080, 64.362 475.126, 65.486 481.989 C 68.486 500.312, 74.424 517.672, 82.169 530.768 C 86.429 537.970, 98.259 550.103, 103.720 552.871 C 110.899 556.510, 118.705 558.001, 130.460 557.979 C 147.714 557.947, 170.863 556.180, 176.957 554.429 C 191.157 550.351, 202.284 538.425, 210.480 518.500 C 212.064 514.650, 213.616 511.188, 213.930 510.807 C 214.628 509.959, 243.905 515.982, 295 527.483 C 339.990 537.611, 435.823 558.808, 451 561.988 C 456.775 563.198, 466.287 565.681, 472.138 567.506 C 477.989 569.331, 491.349 572.733, 501.827 575.066 C 512.305 577.398, 521.267 579.575, 521.743 579.903 C 522.219 580.231, 524.256 585.675, 526.271 592 C 533.403 614.393, 544.654 633.338, 560.831 650.192 C 581.849 672.089, 606.488 685.762, 633.385 690.452 C 655.820 694.364, 694.347 690.492, 722.981 681.446 C 749.702 673.005, 771.470 657.254, 787.153 635.012 C 791.040 629.500, 791.040 629.500, 807.770 630.306 C 831.846 631.466, 896.379 628.948, 919 625.965 C 923.125 625.422, 931.450 623.653, 937.500 622.035 C 945.121 619.996, 953.875 618.614, 966 617.534 C 975.625 616.677, 997.574 614.590, 1014.775 612.895 C 1046.051 609.813, 1046.051 609.813, 1050.125 613.494 C 1056.281 619.055, 1070.181 627.798, 1078.811 631.536 C 1103.482 642.222, 1127.233 644.412, 1155.149 638.573 C 1187.696 631.765, 1212.196 618.353, 1229.562 597.836 C 1234.685 591.784, 1234.685 591.784, 1246.038 588.860 C 1260.111 585.236, 1268.464 581.561, 1271.127 577.822 C 1272.250 576.245, 1274.882 574.080, 1276.977 573.012 C 1281.859 570.521, 1287.330 564.110, 1291.066 556.500 C 1294.711 549.077, 1295.414 542.363, 1297.056 499.297 C 1298.853 452.142, 1297.001 434.906, 1288.074 415.719 C 1285.697 410.612, 1282.572 401.166, 1280.604 393.141 C 1276.252 375.400, 1272.028 366.260, 1264.344 357.960 C 1260.986 354.331, 1256.253 347.555, 1253.546 342.500 C 1247.310 330.854, 1241.858 322.836, 1235.526 316 C 1232.724 312.975, 1229.780 309.209, 1228.983 307.632 C 1225.649 301.025, 1205.477 284.871, 1189.500 276.010 C 1186.200 274.180, 1180.575 270.546, 1177 267.934 C 1173.425 265.322, 1167.125 261.373, 1163 259.159 C 1142.732 248.279, 1099.430 233.553, 1068.500 227.021 C 1055.500 224.275, 1055.500 224.275, 1040.500 213.538 C 996.599 182.112, 929.080 139.278, 887.803 116.666 C 833.185 86.744, 804.440 75.892, 764.500 70.112 C 685.172 58.633, 642.088 54.938, 565 53.003 C 522.425 51.934, 514.243 51.939, 471.500 53.057 M 341 69.005 C 313.393 70.430, 281.112 74.556, 254 80.126 C 222.586 86.579, 191.243 97.398, 182 104.979 C 180.120 106.521, 181.545 106.168, 187.742 103.556 C 214.362 92.338, 258.074 82.509, 304 77.416 C 322.993 75.310, 375.798 74.382, 391.185 75.885 C 430.650 79.738, 454.166 88.505, 479.877 108.946 C 493.457 119.744, 539.960 166.136, 560.624 189.500 C 569.380 199.400, 584.527 217.005, 594.285 228.623 C 612.027 249.745, 612.027 249.745, 618.111 250.942 C 621.457 251.600, 624.438 251.896, 624.735 251.599 C 626.205 250.129, 578.091 194.760, 542.850 157.367 C 490.257 101.562, 465.459 83.877, 426.577 74.449 C 406.785 69.649, 371.728 67.419, 341 69.005 M 592.500 81.598 C 589.200 81.785, 576.600 82.426, 564.500 83.021 C 531.915 84.624, 496.723 87.762, 497.215 89.020 C 497.372 89.420, 500.875 92.427, 505 95.702 C 526.150 112.492, 566.174 153.212, 614.886 207.500 C 640.011 235.500, 640.011 235.500, 648.755 236.690 C 693.134 242.730, 758.973 244.835, 849 243.090 C 949.875 241.135, 1049.293 237.040, 1051.588 234.745 C 1052.572 233.761, 1007.836 201.880, 970.657 177.071 C 917.121 141.347, 877.117 117.721, 837 98.132 C 818.500 89.099, 818.500 89.099, 790.500 86.560 C 775.100 85.164, 754.850 83.531, 745.500 82.930 C 729.693 81.916, 605.905 80.838, 592.500 81.598 M 327 83.105 C 303.866 84.496, 270.941 88.817, 251.181 93.055 C 244.919 94.397, 245.466 93.493, 236.718 117 C 224.246 150.517, 209.350 204.362, 212.082 206.051 C 213.509 206.933, 222.095 208.595, 268.956 217.059 C 286.806 220.284, 301.561 222.772, 301.744 222.589 C 301.928 222.406, 304.083 213.267, 306.535 202.281 C 315.567 161.808, 325.789 129.932, 344.707 83.250 C 345.036 82.440, 344.384 82.052, 342.857 82.147 C 341.561 82.227, 334.425 82.659, 327 83.105 M 368.652 83.680 C 368.362 84.681, 366.541 90.675, 364.606 97 C 359.966 112.166, 354.771 132.236, 351.032 149.437 C 345.391 175.396, 337.371 228.493, 338.944 229.466 C 339.280 229.673, 347.417 231.252, 357.027 232.974 C 366.637 234.697, 376.143 236.474, 378.151 236.924 C 381.584 237.694, 381.834 237.582, 382.342 235.041 C 383.110 231.199, 394.608 220.806, 402.186 217.104 C 412.583 212.024, 421.801 210.576, 444 210.536 C 466.579 210.494, 467.817 210.860, 477.355 220.398 C 487.305 230.348, 490.682 238.876, 487.869 246.947 C 486.856 249.851, 486.987 250.432, 489.119 252.479 C 490.554 253.857, 493.247 254.981, 495.896 255.307 C 500.292 255.849, 500.292 255.849, 499.557 244.674 C 499.154 238.528, 498.481 228.100, 498.064 221.500 C 497.456 211.905, 496.558 207.095, 493.580 197.500 C 488.853 182.269, 481.261 151.410, 476.887 129.650 C 473.500 112.799, 473.500 112.799, 465.500 107.508 C 444.265 93.464, 419.613 85.684, 389.500 83.523 C 385.100 83.207, 378.728 82.704, 375.340 82.404 C 369.970 81.930, 369.112 82.094, 368.652 83.680 M 222 93.975 C 208.685 97.557, 190.679 104.161, 180.991 109.017 C 166.072 116.494, 144.221 141.883, 91.240 213.303 C 85.608 220.895, 81 227.453, 81 227.878 C 81 228.302, 83.138 229.310, 85.750 230.118 C 89.849 231.386, 90.546 231.990, 90.839 234.526 C 91.025 236.142, 90.647 239.272, 89.998 241.482 C 88.734 245.786, 76.736 268.122, 74.470 270.388 C 73.484 271.373, 71.961 271.541, 68.976 270.996 C 66.188 270.486, 64.712 270.607, 64.436 271.370 C 63.922 272.788, 55.362 317.084, 54.555 322.500 C 53.746 327.925, 51 370.387, 51.094 376 C 51.152 379.458, 51.597 378.121, 53.014 370.229 C 55.538 356.168, 60.263 341.457, 65.425 331.589 C 69.745 323.331, 69.745 323.331, 70.485 298.665 C 70.917 284.255, 71.620 274, 72.176 274 C 72.770 274, 72.858 282.671, 72.410 297.135 C 71.693 320.270, 71.693 320.270, 78.103 313.885 C 81.761 310.241, 87.086 306.213, 90.506 304.501 C 95.904 301.801, 97.445 301.502, 106 301.501 C 114.651 301.500, 116.081 301.785, 122.009 304.686 C 129.088 308.151, 139.066 316.613, 145.151 324.311 C 147.268 326.989, 149 328.942, 149 328.652 C 149 328.362, 148.349 325.284, 147.554 321.812 C 145.044 310.859, 141.114 282.116, 139.849 265.454 C 138.630 249.408, 138.630 249.408, 142.817 237.954 C 145.119 231.654, 148.811 220.531, 151.020 213.237 C 156.360 195.606, 158.277 191.516, 168.052 176.905 C 185.560 150.735, 206.018 123.938, 224.285 103.250 C 230.234 96.513, 234.516 91.034, 233.801 91.075 C 233.085 91.117, 227.775 92.422, 222 93.975 M 227.021 110.750 C 208.694 132.319, 191.627 155.222, 179.588 174.403 C 176.514 179.299, 174.005 183.799, 174.011 184.403 C 174.017 185.006, 176.830 187.255, 180.261 189.400 C 195.644 199.017, 204.001 204, 204.745 204 C 205.188 204, 206.810 198.488, 208.349 191.750 C 215.215 161.683, 226.175 126.957, 236.437 102.750 C 237.311 100.688, 237.797 99, 237.516 99 C 237.236 99, 232.513 104.287, 227.021 110.750 M 483 117.972 C 483 124.224, 501.941 198.213, 514.687 241.750 C 518.273 254, 518.273 254, 522.437 254 C 527.709 254, 604.132 246.976, 604.834 246.427 C 605.327 246.041, 585.305 222.390, 564.684 199 C 546.822 178.740, 489.533 120.426, 485.226 118.121 C 483.776 117.345, 483 117.293, 483 117.972 M 159.179 195.250 C 157.525 199.238, 154.284 208.766, 151.977 216.424 C 149.670 224.082, 146.171 234.609, 144.201 239.817 C 140.621 249.287, 140.621 249.287, 141.835 265.257 C 143.561 287.954, 148.009 317.495, 151.550 329.778 C 152.387 332.681, 155.680 340.128, 158.868 346.326 C 166.641 361.438, 170.098 371.300, 177.045 398.168 C 180.269 410.636, 184.554 425.261, 186.569 430.668 C 193.141 448.306, 203.994 469.804, 209.328 475.749 C 211.096 477.718, 211.542 477.820, 212.926 476.567 C 213.795 475.780, 216.980 473.985, 220.003 472.578 C 228.162 468.781, 238.653 469.022, 260.453 473.509 C 269.829 475.438, 281.665 478.092, 286.755 479.405 C 291.845 480.718, 296.187 481.502, 296.403 481.146 C 296.620 480.791, 297.387 476.900, 298.109 472.500 C 299.861 461.822, 299.671 435.147, 297.633 405.500 C 295.030 367.640, 293.998 327.054, 295.067 304.618 C 295.589 293.654, 295.802 284.469, 295.541 284.207 C 294.994 283.661, 248.433 273.180, 214.612 265.989 C 202.023 263.313, 191.246 260.646, 190.662 260.062 C 189.913 259.313, 189.957 259, 190.812 259 C 192.306 259, 238.927 268.998, 271.999 276.410 C 285.474 279.431, 296.786 281.586, 297.137 281.201 C 300.243 277.790, 313.563 233.160, 311.932 231.624 C 311.695 231.400, 293.725 227.988, 272 224.043 C 199.253 210.830, 201.895 211.602, 177.815 196.552 C 170.289 191.849, 163.694 188, 163.159 188 C 162.624 188, 160.833 191.262, 159.179 195.250 M 427.054 213.069 C 416.417 214.377, 408.582 216.572, 401.971 220.096 C 395.471 223.560, 385 232.459, 385 234.519 C 385 237.301, 406.130 238.989, 449.750 239.693 C 479.594 240.175, 487 240.041, 487 239.019 C 487 233.793, 472.704 217.507, 465.287 214.283 C 460.772 212.320, 438.805 211.623, 427.054 213.069 M 105.244 224.476 C 99.915 228.363, 97.131 238.074, 96.319 255.606 C 95.746 267.994, 95.827 268.827, 97.801 270.801 C 100.501 273.501, 108.765 276.036, 117.060 276.709 C 123.468 277.229, 123.680 277.169, 126.283 274.075 C 129.565 270.175, 130.743 265.949, 132.069 253.323 C 134.431 230.820, 134.433 230.433, 132.190 228.190 C 129.541 225.541, 124.376 224.100, 115 223.395 C 108.980 222.942, 107.055 223.155, 105.244 224.476 M 105.298 227.152 C 100.725 232.083, 98.174 243.264, 97.825 259.898 C 97.612 270.035, 98.429 271.028, 108.964 273.424 C 127.531 277.647, 127.977 276.950, 131.641 237.950 C 132.143 232.611, 131.949 231.092, 130.595 229.737 C 128.408 227.551, 123.102 226.113, 114.500 225.377 C 108.022 224.822, 107.336 224.955, 105.298 227.152 M 73.175 234.925 C 67.573 240.297, 66.414 243.860, 65.338 259.024 C 64.718 267.748, 64.718 267.748, 68.609 268.267 C 73.615 268.934, 74.919 267.435, 82.937 251.805 C 91.127 235.837, 91.011 233.726, 81.806 231.204 C 78.234 230.225, 77.949 230.348, 73.175 234.925 M 1073 231.597 C 1073 235.855, 1051.183 238.516, 996 240.990 C 922.183 244.299, 811.961 246.455, 760 245.607 C 716.131 244.891, 697.083 243.919, 667.500 240.885 C 635.886 237.643, 630.502 237.441, 627.533 239.386 C 624.352 241.471, 624.351 243.218, 627.531 248.643 C 629.696 252.338, 630.816 253.172, 635.281 254.414 C 638.151 255.213, 651.975 259.029, 666 262.894 C 697.144 271.477, 724.172 279.913, 747.775 288.419 C 768.750 295.978, 772.671 297.039, 792.500 300.526 C 800.750 301.977, 825.050 306.706, 846.500 311.034 C 867.950 315.363, 889.775 319.391, 895 319.985 C 910.415 321.738, 988.793 322.412, 1024.500 321.100 C 1081.781 318.994, 1138.404 313.967, 1162.109 308.883 C 1171.041 306.968, 1183.846 297.747, 1186.648 291.213 C 1191.256 280.469, 1176.873 266.974, 1147.277 254.269 C 1122.481 243.625, 1073 228.522, 1073 231.597 M 311.797 243.758 C 309.690 253.336, 305.373 266.474, 299.436 281.378 C 298.772 283.044, 299.071 283.197, 302.094 282.734 C 303.967 282.447, 307.525 281.441, 310 280.499 C 315.668 278.341, 327.531 278.966, 337.058 281.925 C 344.040 284.094, 347.439 286.838, 348.516 291.178 C 349.321 294.423, 349.188 294.370, 365.434 297.991 C 377.036 300.578, 425.887 312.040, 488.940 326.969 C 500.731 329.761, 510.594 332.260, 510.856 332.523 C 511.119 332.785, 511.100 333.233, 510.815 333.518 C 510.530 333.803, 486.268 328.371, 456.899 321.446 C 427.529 314.521, 391.800 306.178, 377.500 302.906 C 363.200 299.634, 350.772 296.730, 349.882 296.453 C 348.787 296.112, 347.876 296.884, 347.065 298.843 C 345.324 303.047, 340.075 307.663, 335.693 308.844 C 328.888 310.678, 314.097 307.052, 308.645 302.212 C 306.038 299.898, 302.022 291.144, 302.010 287.750 C 302.003 285.716, 301.504 285, 300.096 285 C 298.390 285, 298.118 286.096, 297.473 295.552 C 296.272 313.182, 297.627 376.318, 300.005 413.500 C 301.920 443.451, 302.081 450.379, 301.117 461.524 C 300.497 468.687, 299.548 476.089, 299.008 477.973 C 298.300 480.440, 298.353 481.600, 299.194 482.120 C 299.837 482.517, 307.819 484.704, 316.932 486.980 C 341.063 493.006, 417.227 513.895, 440.711 520.928 C 473.857 530.854, 485.315 536.785, 501.975 552.639 C 511.956 562.137, 510.506 576.541, 512.909 444 C 514.548 353.553, 515.284 338.797, 519.443 313 C 523.095 290.349, 527.671 264.787, 528.641 261.621 C 529.169 259.897, 528.776 259.792, 523.858 260.344 C 520.911 260.675, 514.345 261.240, 509.267 261.600 C 500.033 262.255, 500.033 262.255, 504.017 267.258 C 506.207 270.010, 508 272.888, 508 273.653 C 508 275.817, 499.868 284.140, 496.282 285.648 C 492.101 287.405, 486.811 287.366, 482.455 285.546 C 480.540 284.746, 474.367 280.305, 468.737 275.678 C 458.500 267.265, 458.500 267.265, 447.500 266.594 C 422.944 265.097, 404.373 262.236, 397.932 258.960 C 394.603 257.267, 390.234 252.971, 385.500 246.736 C 383.607 244.242, 381.712 243.780, 349.936 238.051 C 331.476 234.723, 315.925 232, 315.378 232 C 314.831 232, 313.220 237.291, 311.797 243.758 M 386.059 240.656 C 386.640 242.184, 387.595 244.012, 388.180 244.717 C 389.346 246.122, 397 246.511, 397 245.166 C 397 243.916, 408.611 245.748, 412.087 247.545 C 414.474 248.779, 420.434 249.257, 440.306 249.805 C 454.163 250.187, 469.670 250.355, 474.766 250.179 C 484.033 249.857, 484.033 249.857, 485.516 246.306 C 486.332 244.354, 487 242.655, 487 242.531 C 487 242.408, 470.012 242.031, 449.250 241.694 C 415.700 241.150, 404.616 240.552, 389.252 238.457 C 385.003 237.878, 385.003 237.878, 386.059 240.656 M 159.297 246.999 C 150.359 248.871, 148.724 251.644, 151.547 260.140 C 153.805 266.941, 156.503 269.509, 163.538 271.554 C 175.467 275.022, 184.037 271.990, 187.938 262.922 C 190.506 256.953, 190.505 255.912, 187.934 252.644 C 184.426 248.184, 168.565 245.058, 159.297 246.999 M 167 248.734 C 167 249.260, 167.846 250.456, 168.880 251.391 C 170.367 252.737, 172.301 253.031, 178.130 252.796 C 185.500 252.500, 185.500 252.500, 180 250.798 C 172.366 248.436, 167 247.584, 167 248.734 M 157 249.709 C 154.458 250.644, 152 253.227, 152 254.964 C 152 258.744, 154.512 259.933, 168.900 262.963 C 184.402 266.229, 184.855 266.179, 187.006 260.985 C 189.232 255.612, 188.194 255.003, 176.781 254.976 C 167.562 254.954, 160.292 254.039, 156 252.360 C 154.970 251.957, 155.596 251.363, 158 250.463 C 159.925 249.742, 160.825 249.153, 160 249.155 C 159.175 249.157, 157.825 249.406, 157 249.709 M 572 255.640 C 553.025 257.504, 535.927 259.360, 534.005 259.764 C 530.618 260.477, 530.473 260.700, 529.314 267 C 525.618 287.075, 518.863 328.820, 517.986 337 C 517.426 342.225, 516.296 380.700, 515.475 422.500 C 514.654 464.300, 513.692 513.190, 513.338 531.145 C 512.695 563.791, 512.695 563.791, 515.940 565.469 C 517.725 566.392, 519.308 567.002, 519.456 566.824 C 519.605 566.646, 519.300 562.900, 518.779 558.500 C 517.490 547.614, 518.907 510.191, 521.561 485 C 527.831 425.506, 549.960 379.099, 582.269 357.691 C 596.384 348.338, 610.111 344.482, 626.480 345.275 C 647.228 346.279, 662.720 353.369, 683.134 371.204 C 686.782 374.392, 690.070 377, 690.439 377 C 690.808 377, 693.673 375.274, 696.805 373.165 C 699.937 371.056, 707 366.693, 712.500 363.469 C 718 360.245, 722.674 357.485, 722.887 357.334 C 723.100 357.183, 719.665 353.247, 715.254 348.587 C 710.843 343.927, 706.249 338.079, 705.045 335.593 C 703.109 331.593, 703.010 330.751, 704.190 328.286 C 705.878 324.761, 713.507 320.590, 721.284 318.940 C 725.969 317.945, 729.129 317.923, 735.989 318.837 C 740.795 319.477, 745.189 320, 745.754 320 C 746.395 320, 746.218 318.078, 745.281 314.884 C 744.233 311.308, 743.896 306.677, 744.162 299.498 C 744.542 289.227, 744.542 289.227, 731.021 284.648 C 687.999 270.080, 619.610 251.742, 609.734 252.126 C 607.955 252.195, 590.975 253.776, 572 255.640 M 155.450 263.731 C 155.753 264.519, 156 265.343, 156 265.561 C 156 265.780, 157.899 266.928, 160.221 268.113 C 165.355 270.732, 175.688 271.772, 178.995 270.003 C 182.248 268.262, 180.758 267.623, 166.669 264.722 C 157.147 262.761, 155.005 262.572, 155.450 263.731 M 1187.551 280.468 C 1190.992 288.704, 1188.639 295.188, 1179.782 301.875 C 1168.765 310.193, 1162.496 311.879, 1127.500 315.940 C 1084.539 320.925, 1049.012 322.908, 989.500 323.642 C 910.065 324.622, 895.862 323.519, 841.500 312.145 C 828.300 309.384, 807.375 305.273, 795 303.011 C 780.166 300.299, 768.122 297.443, 759.650 294.627 C 748.556 290.939, 746.712 290.570, 746.150 291.928 C 745.056 294.573, 745.770 311.234, 747.175 315.847 C 748.500 320.193, 748.500 320.193, 774.500 325.491 C 788.800 328.405, 830.200 337.435, 866.500 345.557 C 921.363 357.833, 934.609 360.477, 945 361.227 C 957.297 362.114, 1055.668 360.665, 1056.753 359.580 C 1057.038 359.296, 1057.411 357.497, 1057.583 355.583 C 1058.431 346.136, 1065.329 341.397, 1077.015 342.233 C 1085.547 342.844, 1093.230 346.328, 1099.606 352.479 C 1104.500 357.201, 1104.500 357.201, 1113 356.537 C 1125.722 355.543, 1162.275 351.288, 1178.344 348.931 C 1193.761 346.669, 1195.956 345.779, 1208.092 336.879 C 1219.653 328.401, 1228 317.835, 1228 311.681 C 1228 306.697, 1213.127 293.148, 1196.080 282.603 C 1191.098 279.521, 1186.815 277, 1186.562 277 C 1186.309 277, 1186.754 278.561, 1187.551 280.468 M 319.815 281.684 C 320.538 281.973, 321.515 283.224, 321.986 284.464 C 322.534 285.903, 324.002 286.950, 326.047 287.359 C 330.350 288.220, 338.034 288.050, 340.500 287.040 C 342.337 286.287, 342.256 286.124, 339.503 285.041 C 334.888 283.225, 324.841 281.022, 321.500 281.094 C 319.850 281.129, 319.092 281.395, 319.815 281.684 M 304.428 287.328 C 303.641 289.377, 305.676 293.766, 307.693 294.369 C 308.687 294.666, 316.638 296.518, 325.362 298.485 C 337.960 301.324, 341.523 301.811, 342.678 300.853 C 344.657 299.210, 347.202 294.135, 346.563 293.103 C 346.278 292.641, 340.973 291.719, 334.773 291.052 C 328.573 290.386, 319.471 288.976, 314.547 287.920 C 303.908 285.639, 305.050 285.705, 304.428 287.328 M 307 296.948 C 307 298.933, 314.278 303.936, 319.181 305.320 C 328.683 308.004, 332.444 308.260, 336.623 306.505 C 341.640 304.399, 340.792 303.966, 325 300.573 C 318.125 299.095, 311.262 297.486, 309.750 296.995 C 308.238 296.505, 307 296.484, 307 296.948 M 93.892 305.303 C 90.808 306.600, 86.969 308.598, 85.361 309.743 C 80.917 312.908, 73 321.712, 73 323.490 C 73 324.357, 74.124 327.285, 75.499 329.997 C 77.997 334.928, 77.997 334.928, 82.531 330.522 C 85.025 328.098, 89.638 324.852, 92.782 323.308 C 97.602 320.941, 99.757 320.500, 106.500 320.500 C 116.693 320.500, 123.380 323.563, 133.005 332.643 C 158.072 356.291, 172.696 399.888, 178.576 468.500 C 179.471 478.950, 180.607 488.257, 181.100 489.181 C 181.665 490.241, 184.793 491.485, 189.553 492.544 C 193.708 493.468, 197.215 494.062, 197.345 493.862 C 199.466 490.608, 203.952 484.811, 206.257 482.346 C 209.205 479.193, 209.205 479.193, 205.236 473.346 C 200.179 465.897, 192.113 449.833, 187.055 437.139 C 183.367 427.881, 178.601 412.747, 172.632 391.342 C 166.356 368.834, 153.761 338.864, 146.573 329.332 C 144.569 326.675, 139.907 321.435, 136.214 317.688 C 123.097 304.379, 107.174 299.720, 93.892 305.303 M 1228.016 318.742 C 1225.147 325.410, 1213.469 336.723, 1202.495 343.463 C 1198.098 346.164, 1194.444 348.403, 1194.375 348.437 C 1194.307 348.472, 1193.946 351.012, 1193.574 354.081 C 1192.898 359.663, 1192.898 359.663, 1207.199 366.205 C 1215.065 369.804, 1223.238 373.306, 1225.362 373.989 C 1231.177 375.856, 1238.918 374.807, 1246.364 371.142 C 1253.753 367.504, 1258 363.116, 1258 359.120 C 1258 353.076, 1244.072 328.707, 1234.793 318.518 C 1230.256 313.535, 1230.256 313.535, 1228.016 318.742 M 718.372 322.838 C 706.454 326.957, 705.449 329.832, 712.830 338.698 C 719.519 346.733, 737.914 364.015, 747.379 371.156 C 761.649 381.924, 770.611 385.351, 795.160 389.426 C 827.568 394.806, 881.128 398.387, 894.637 396.078 C 902.536 394.727, 915.920 388.429, 931.761 378.607 C 941.023 372.865, 941.023 372.865, 937.391 368.432 C 935.393 365.995, 933.456 364, 933.086 364 C 931.802 364, 861.250 349.064, 808.500 337.624 C 756.143 326.270, 729.651 320.969, 725.587 321.033 C 724.439 321.051, 721.192 321.863, 718.372 322.838 M 66.179 334.250 C 58.970 349.001, 55.466 363.009, 52.521 388.845 C 50.107 410.028, 50.756 421.811, 55.520 443.236 C 57.008 449.930, 60.918 461.429, 61.499 460.819 C 61.666 460.644, 60.968 456.675, 59.949 452 C 51.676 414.073, 57.877 365.235, 73.999 341.347 C 76.959 336.961, 76.959 336.961, 74.271 331.480 C 72.793 328.466, 71.275 326, 70.897 326 C 70.520 326, 68.396 329.712, 66.179 334.250 M 1072.741 345.431 C 1068.163 347.062, 1066.274 348.561, 1064.552 351.927 C 1061.064 358.748, 1062.270 369.485, 1067.533 378.467 C 1070.701 383.871, 1079.679 392.424, 1084.117 394.265 C 1092.828 397.878, 1100.213 397.020, 1105.712 391.756 C 1114.285 383.550, 1110.818 365.461, 1098.496 354.103 C 1090.381 346.623, 1079.591 342.990, 1072.741 345.431 M 606.047 349.061 C 581.252 355.553, 558.992 376.524, 544.018 407.500 C 532.344 431.649, 524.244 465.141, 522.494 496.500 C 521.935 506.500, 521.935 506.500, 524.404 498.500 C 527.424 488.713, 532.151 477.184, 535.885 470.500 C 537.421 467.750, 539.440 462.350, 540.372 458.500 C 551.374 413.038, 574.763 380.847, 604 370.930 C 612.900 367.912, 628.053 367.231, 637.500 369.425 C 647.304 371.702, 661.500 378.999, 669.985 386.124 C 673.939 389.443, 677.254 392.011, 677.352 391.830 C 677.450 391.648, 679.981 388.615, 682.975 385.088 C 688.418 378.677, 688.418 378.677, 681.531 372.279 C 658.775 351.139, 630.881 342.559, 606.047 349.061 M 1076.250 347.706 C 1075.013 347.944, 1074.021 348.445, 1074.046 348.820 C 1074.072 349.194, 1077.037 352.650, 1080.636 356.500 C 1087.179 363.500, 1087.179 363.500, 1086.715 356.137 C 1086.142 347.051, 1084.890 346.042, 1076.250 347.706 M 1068.562 353.880 C 1067.703 355.541, 1067 357.401, 1067 358.013 C 1067 358.625, 1070.079 362.620, 1073.843 366.891 C 1077.607 371.162, 1081.742 376.084, 1083.031 377.828 C 1084.321 379.573, 1085.741 381, 1086.188 381 C 1086.635 381, 1087 378.798, 1087 376.107 C 1087 372.680, 1087.449 371.042, 1088.500 370.638 C 1090.906 369.715, 1092.527 370.814, 1096.122 375.808 C 1099.500 380.500, 1099.500 380.500, 1099.785 369.628 C 1100.103 357.500, 1099.332 355.257, 1093.875 352.435 C 1090.769 350.829, 1090.769 350.829, 1091.134 359.664 C 1091.500 368.500, 1091.500 368.500, 1088.946 368.797 C 1086.834 369.044, 1085.240 367.729, 1079.725 361.194 C 1070.481 350.239, 1070.454 350.222, 1068.562 353.880 M 1177.500 353.062 C 1170.350 354.074, 1151.675 356.331, 1136 358.079 C 1120.325 359.826, 1107.323 361.413, 1107.107 361.604 C 1106.892 361.795, 1107.213 362.552, 1107.823 363.286 C 1108.742 364.394, 1112.543 364.230, 1130.215 362.317 C 1155.772 359.550, 1190.039 355.094, 1191.179 354.389 C 1192.207 353.754, 1192.267 350.961, 1191.250 351.111 C 1190.838 351.172, 1184.650 352.050, 1177.500 353.062 M 1260.674 360.250 C 1261.954 367.513, 1245.731 378.846, 1233.712 379.083 C 1229.500 379.167, 1229.500 379.167, 1234.972 381.750 C 1242.469 385.290, 1249.497 385.235, 1257.655 381.574 C 1269.810 376.119, 1272.141 370.540, 1265.600 362.556 C 1261.466 357.512, 1260.077 356.861, 1260.674 360.250 M 719 361.636 C 706.404 368.962, 692 378.239, 692 379.026 C 692 379.515, 695.184 383.872, 699.076 388.708 C 715.735 409.408, 729.169 436.102, 738.938 467.919 C 743.565 482.988, 749.160 508.783, 747.962 509.524 C 747.514 509.800, 746.636 507.433, 746.011 504.263 C 738.142 464.358, 725.254 430.591, 707.551 403.500 C 700.832 393.218, 691.052 381, 689.542 381 C 688.896 381, 686.064 383.813, 683.249 387.250 C 678.131 393.500, 678.131 393.500, 681.385 397 C 699.811 416.820, 715.245 445.810, 724.477 477.939 C 732.240 504.958, 735.238 523.562, 736.987 555.570 C 739.182 595.747, 740.600 605.850, 744.759 610.926 C 746.817 613.437, 750.869 614.173, 776.500 616.687 C 790.966 618.106, 804.119 618.453, 843.500 618.451 C 903.902 618.449, 924.176 616.852, 943.125 610.600 C 950.500 608.167, 950.500 608.167, 937.500 608.833 C 914.426 610.016, 841.247 609.565, 833.116 608.189 C 814.483 605.037, 808.432 598.680, 807.291 581.055 C 806.322 566.104, 810.232 527.522, 814.845 506.500 C 819.121 487.018, 823.917 479.135, 834.728 473.814 C 841.199 470.629, 841.911 470.502, 852.981 470.551 C 863.422 470.598, 897.500 473.469, 900.893 474.588 C 905.337 476.053, 898.644 475.862, 878.363 473.947 C 852.884 471.540, 843.578 471.766, 836.333 474.970 C 827.212 479.003, 822.640 485.243, 818.625 499.138 C 814.221 514.382, 809 555.592, 809 575.111 C 809 588.353, 810.451 593.689, 815.405 598.657 C 820.609 603.875, 826.382 605.648, 842.500 606.978 C 869.307 609.190, 938.810 607.743, 960 604.532 C 965.225 603.740, 974 602.828, 979.500 602.505 C 1035.668 599.209, 1122.211 590.851, 1177.451 583.389 C 1191.778 581.454, 1210.025 579.023, 1218 577.987 C 1240.505 575.063, 1261.251 570.069, 1276.250 563.965 C 1292.304 557.432, 1292.664 556.124, 1295.044 495.723 C 1296.587 456.564, 1295.110 443.270, 1288.844 439.916 C 1285.340 438.041, 1278.172 439.395, 1266.214 444.192 C 1260.006 446.682, 1255.089 448.232, 1255.287 447.638 C 1255.893 445.820, 1277.177 437.688, 1282.546 437.223 C 1286.879 436.848, 1288.029 437.153, 1290.678 439.383 C 1293.764 441.979, 1293.764 441.979, 1292.417 434.911 C 1291.676 431.024, 1289.437 424.167, 1287.440 419.672 C 1283.219 410.171, 1279.284 398.625, 1278.415 393.196 C 1277.808 389.396, 1277.808 389.396, 1272.070 395.010 C 1261.568 405.287, 1242.922 412.726, 1214.199 418.098 C 1193.307 422.005, 1194.471 421.658, 1196.019 423.523 C 1197.022 424.731, 1196.921 425.942, 1195.498 429.761 C 1193.013 436.434, 1184.903 449.993, 1182.414 451.637 C 1181.267 452.395, 1176.767 453.453, 1172.414 453.988 C 1149.304 456.831, 1047.251 464.665, 1025.836 465.240 C 1013.895 465.561, 1013.018 465.025, 1004.160 451.999 C 998.878 444.233, 997.884 442.118, 998.209 439.338 C 998.598 436, 998.598 436, 985.549 435.987 C 942.592 435.943, 888.326 431.268, 839.500 423.405 C 805.446 417.921, 748.123 404.878, 747.308 402.428 C 747.112 401.838, 755.400 403.493, 765.726 406.104 C 815.195 418.618, 870.678 427.362, 931 432.152 C 950.973 433.738, 1021.675 433.740, 1051 432.156 C 1190.226 424.633, 1249.271 414.275, 1270.580 393.637 C 1276.800 387.612, 1277.202 385.665, 1273.841 377.852 C 1271.682 372.833, 1271.682 372.833, 1269.268 375.917 C 1263.796 382.908, 1250.011 387.887, 1241.362 385.995 C 1238.688 385.411, 1226.150 379.794, 1213.500 373.514 C 1190.500 362.095, 1190.500 362.095, 1178 364.034 C 1171.125 365.100, 1155.150 367.110, 1142.500 368.502 C 1129.850 369.893, 1117.700 371.259, 1115.500 371.539 C 1111.500 372.046, 1111.500 372.046, 1111.858 377.191 C 1112.523 386.748, 1108.891 393.782, 1101.579 397.104 C 1096.199 399.547, 1090.373 399.475, 1083.288 396.880 C 1078.447 395.106, 1075.920 393.139, 1067.840 384.852 C 1058.181 374.945, 1058.181 374.945, 1026.340 375.965 C 1008.828 376.527, 984.712 376.989, 972.750 376.993 C 954.629 376.999, 951 377.237, 951 378.420 C 951 380.046, 936.099 392.821, 926.982 399.012 C 923.612 401.300, 917.867 404.571, 914.215 406.280 C 908.314 409.042, 906.320 409.436, 896.303 409.819 C 883.667 410.303, 861.199 408.886, 834.853 405.944 C 790.536 400.996, 764.169 393.393, 747.500 380.754 C 744.200 378.252, 737.694 372.334, 733.042 367.603 C 728.390 362.871, 724.340 359.004, 724.042 359.009 C 723.744 359.015, 721.475 360.197, 719 361.636 M 1027.500 365.033 C 1015.400 365.426, 990.500 365.804, 972.167 365.873 C 945.989 365.973, 938.923 366.268, 939.250 367.250 C 939.753 368.762, 1003.564 369.417, 1035.500 368.238 C 1052.283 367.619, 1055.500 367.259, 1055.500 366 C 1055.500 364.145, 1055.219 364.135, 1027.500 365.033 M 1103.991 372.191 C 1103.987 376.211, 1103.695 381.975, 1103.342 385 C 1102.702 390.500, 1102.702 390.500, 1104.771 388.667 C 1105.909 387.659, 1107.365 384.646, 1108.007 381.972 C 1108.971 377.953, 1108.896 376.153, 1107.574 371.605 C 1105.214 363.489, 1104.001 363.687, 1103.991 372.191 M 1067.499 368.445 C 1068.475 372.956, 1070.455 377.083, 1073.873 381.731 C 1077.166 386.208, 1084.151 391.450, 1086.003 390.832 C 1087.425 390.358, 1078.706 377.939, 1072.028 370.925 C 1067.194 365.848, 1066.903 365.689, 1067.499 368.445 M 100.307 373.077 C 98.001 374.219, 94.239 377.187, 91.946 379.674 C 87.794 384.179, 80.703 397.796, 79.540 403.500 C 79.006 406.116, 79.140 406.015, 80.588 402.708 C 81.501 400.622, 82.711 399.070, 83.277 399.259 C 83.844 399.448, 89.560 408.354, 95.980 419.051 C 102.400 429.748, 108.068 438.376, 108.576 438.225 C 110.088 437.775, 109.617 433.831, 104.565 404.664 C 99.112 373.187, 99.020 374.203, 107.409 373.257 C 115.211 372.378, 124.896 377.467, 125.225 382.620 C 125.291 383.654, 123.155 396.547, 120.479 411.271 C 116.205 434.790, 115.792 438.221, 117.080 439.508 C 118.368 440.796, 119.918 439.328, 129.841 427.427 C 136.054 419.975, 141.668 414.053, 142.318 414.266 C 146.999 415.799, 151.762 460.003, 147.426 461.667 C 146.560 461.999, 140.178 460.434, 133.243 458.189 C 126.308 455.945, 120.267 454.335, 119.817 454.613 C 117.644 455.956, 119.840 461.886, 129.500 480.758 C 135.275 492.040, 140 502.418, 140 503.820 C 140 509.632, 131.122 522.334, 124.761 525.623 C 122.248 526.923, 121.539 526.959, 120.463 525.840 C 119.629 524.973, 118.257 514.973, 116.576 497.500 C 113.521 465.759, 113.233 463.756, 111.782 464.239 C 111.176 464.441, 107.919 476.603, 104.545 491.265 C 101.171 505.927, 98.078 518.255, 97.673 518.660 C 96.571 519.762, 91.574 514.280, 87.554 507.559 C 85.599 504.291, 84 502.060, 84 502.601 C 84 504.999, 94.428 520.207, 98.577 523.859 C 104.270 528.870, 111.525 531.448, 117.439 530.561 C 136.768 527.663, 150.029 497.261, 150.101 455.684 C 150.143 431.661, 146.562 414.106, 138.018 396.444 C 127.714 375.142, 113.690 366.453, 100.307 373.077 M 744.564 376.104 C 744.872 376.602, 747.854 378.863, 751.190 381.129 C 763.938 389.786, 778.606 394.961, 803 399.407 C 830.536 404.426, 875.009 408.485, 895.569 407.856 C 906.829 407.512, 907.922 407.290, 915 403.908 C 925.762 398.767, 949.868 380.214, 948.552 378.084 C 946.937 375.472, 941.797 377.280, 929.008 384.958 C 914.702 393.547, 904.292 398.311, 895.841 400.135 C 889.199 401.569, 855.380 400.709, 832.500 398.524 C 786.642 394.146, 765.336 389.208, 750.634 379.552 C 746.987 377.157, 744.256 375.605, 744.564 376.104 M 1090.991 379.750 C 1090.987 381.262, 1090.699 384.863, 1090.352 387.750 C 1089.721 393, 1089.721 393, 1094.611 392.985 C 1102.569 392.960, 1102.790 392.240, 1097.324 384.172 C 1094.671 380.257, 1092.162 377.041, 1091.750 377.027 C 1091.338 377.012, 1090.996 378.238, 1090.991 379.750 M 1168.500 425.051 C 1136.669 428.875, 1079.245 433.037, 1030.530 435.050 C 1015.696 435.664, 1002.759 436.594, 1001.780 437.118 C 1000.801 437.642, 1000.002 439.067, 1000.005 440.285 C 1000.011 442.948, 1008.588 456.300, 1012.991 460.500 C 1016.050 463.418, 1016.372 463.493, 1024.818 463.226 C 1046.291 462.549, 1143.286 455.153, 1172 452.004 C 1179.857 451.142, 1180.713 450.823, 1183.310 447.786 C 1187.458 442.935, 1195.249 426.813, 1194.451 424.732 C 1193.609 422.538, 1188.943 422.595, 1168.500 425.051 M 628.232 437.079 C 570.534 445.969, 533.549 513.440, 551.594 576.888 C 554.963 588.735, 563.482 605.891, 570.826 615.622 C 590.124 641.191, 618.441 656.035, 647.815 655.983 C 686.040 655.914, 718.602 631.338, 733.911 591 C 737.027 582.792, 736.698 558.346, 733.508 560.993 C 732.658 561.699, 721.608 560.309, 697.510 556.466 C 678.386 553.416, 662.303 551.066, 661.770 551.243 C 661.238 551.421, 660.179 553.046, 659.419 554.855 C 658.036 558.145, 658.036 558.145, 675.220 576.322 C 684.672 586.320, 696.814 599.047, 702.203 604.605 C 711.065 613.746, 712 615.068, 712 618.465 C 712 621.752, 711.240 622.952, 705.890 628.106 C 697.843 635.859, 687.411 642.701, 677.519 646.713 C 668.484 650.379, 664.040 650.811, 661.735 648.250 C 660.365 646.727, 655.416 620.684, 647.912 575.500 C 646.342 566.046, 645.598 564.812, 641.696 565.192 C 638.525 565.500, 638.525 565.500, 623.512 601.837 C 614.095 624.631, 607.821 638.547, 606.678 639.177 C 603.796 640.764, 600.693 639.430, 591.959 632.848 C 574.379 619.601, 559.561 596.929, 565.345 592.129 C 566.085 591.515, 580.597 582.667, 597.595 572.467 C 614.593 562.267, 628.455 553.490, 628.400 552.961 C 628.345 552.432, 628.226 551.212, 628.135 550.250 C 627.787 546.566, 626.237 546.001, 610.948 543.979 C 571.401 538.749, 554.583 535.933, 552.680 534.221 C 551.059 532.762, 550.854 531.586, 551.333 526.500 C 553.032 508.463, 567.764 476, 574.250 476 C 575.846 476, 584.515 484.023, 604.494 503.990 C 632.500 531.980, 632.500 531.980, 635.411 529.656 C 638.322 527.332, 638.322 527.332, 629.065 487.617 C 623.454 463.543, 620.047 446.948, 620.416 445.480 C 621.477 441.253, 624.339 440.537, 640 440.580 C 652.902 440.615, 655.492 440.923, 663.500 443.370 C 674.125 446.616, 676.746 448.141, 677.609 451.578 C 678.072 453.423, 674.708 464.287, 665.460 490.815 C 658.426 510.992, 652.544 527.950, 652.389 528.500 C 652.234 529.050, 653.442 530.554, 655.073 531.842 C 658.039 534.185, 658.039 534.185, 679.270 520.285 C 690.946 512.641, 704.657 503.769, 709.738 500.570 C 718.889 494.810, 719.002 494.771, 721.591 496.468 C 723.029 497.410, 725.488 500.953, 727.057 504.340 C 730.504 511.787, 730.598 511.296, 727.917 499.875 C 725.648 490.212, 720.877 481.804, 711.362 470.702 C 699.012 456.291, 678.459 443.196, 661.561 438.970 C 652.091 436.602, 636.913 435.741, 628.232 437.079 M 111.400 439.766 C 106.100 443.300, 107.434 461, 113 461 C 117.466 461, 119.541 449.539, 116.248 443.060 C 114.390 439.402, 113.179 438.580, 111.400 439.766 M 73.878 441.500 C 72.491 446.620, 74.631 470.215, 77.666 483.271 C 79.228 489.992, 79.396 490.272, 80.046 487.254 C 80.503 485.133, 83.820 480.664, 89.623 474.349 C 104.808 457.826, 106 456.318, 106 453.635 C 106 450.844, 105.593 450.672, 91.500 447.494 C 80.279 444.964, 75.155 443.033, 74.771 441.190 C 74.476 439.774, 74.331 439.824, 73.878 441.500 M 1171 458.589 C 1166.758 459.600, 1086.475 465.870, 1030.197 469.585 C 1014.997 470.588, 1015.968 468.856, 1015.094 496.532 C 1014.244 523.475, 1014.422 524.349, 1020.850 524.812 C 1027.689 525.304, 1167.425 513.211, 1174.737 511.494 C 1179.324 510.417, 1179.831 507.975, 1180.584 483.363 C 1181.280 460.594, 1181.258 460.209, 1179.212 459.113 C 1177.205 458.039, 1174.131 457.843, 1171 458.589 M 1156.500 462.055 C 1135.307 464.200, 1083.190 468.243, 1046.500 470.591 C 1028.307 471.754, 1020.076 472.650, 1019.088 473.574 C 1017.955 474.635, 1017.659 479.578, 1017.588 498.697 C 1017.500 522.500, 1017.500 522.500, 1027 522.260 C 1038.326 521.974, 1085.315 518.134, 1129 513.924 C 1146.325 512.255, 1163.572 510.621, 1167.326 510.293 C 1178.304 509.335, 1177.883 510.370, 1178.216 483.500 C 1178.492 461.109, 1178.447 460.496, 1176.500 460.367 C 1175.400 460.294, 1166.400 461.054, 1156.500 462.055 M 227.718 472.079 C 222.801 472.865, 213.032 477.719, 212.784 479.500 C 212.707 480.050, 214.412 481.722, 216.572 483.216 C 220.500 485.933, 220.500 485.933, 226 483.999 C 236.432 480.331, 249 481.487, 281.831 489.135 C 291.363 491.355, 299.349 492.984, 299.579 492.755 C 299.808 492.525, 299.209 490.455, 298.248 488.155 C 296.288 483.464, 297.436 483.953, 277 479.113 C 251.100 472.979, 235.769 470.791, 227.718 472.079 M 1278.500 481.868 C 1276.300 482.833, 1268.744 486.405, 1261.709 489.804 C 1247.464 496.688, 1225.690 505.493, 1213.500 509.298 C 1191.066 516.302, 1109.437 525.164, 1017.500 530.577 C 972.213 533.243, 947.692 531.715, 880.500 522.042 C 850.176 517.677, 843.696 517.264, 838.636 519.379 C 831.355 522.421, 828.945 528.679, 825.881 552.500 C 823.349 572.183, 823.584 583.627, 826.605 587.677 C 832.722 595.882, 837.772 596.346, 914 595.710 C 972.459 595.222, 985.793 594.701, 1034.500 590.994 C 1098.037 586.159, 1177.736 577.022, 1210 570.873 C 1222.087 568.570, 1247.588 562.276, 1260 558.533 C 1281.715 551.984, 1287.705 548.200, 1289.853 539.671 C 1291.061 534.874, 1291.491 492.707, 1290.389 487.194 C 1289.657 483.534, 1286.580 479.979, 1284.211 480.056 C 1283.270 480.087, 1280.700 480.902, 1278.500 481.868 M 206.806 484.798 C 203.019 488.795, 200 492.976, 200 494.223 C 200 494.650, 201.582 495, 203.515 495 C 205.888 495, 208.813 493.816, 212.515 491.358 C 215.532 489.356, 217.990 487.443, 217.979 487.108 C 217.967 486.774, 216.237 485.284, 214.135 483.798 C 210.313 481.095, 210.313 481.095, 206.806 484.798 M 228 485.550 C 223.057 487.100, 212.836 492.955, 212.349 494.515 C 212.023 495.558, 223.117 500.685, 231.500 503.366 C 237.050 505.142, 421.237 546.567, 459.477 554.641 C 481.817 559.358, 509.089 563.770, 508.725 562.609 C 508.042 560.429, 494.343 550.845, 485.640 546.458 C 470.905 539.030, 450.470 533.242, 350 508.042 C 254.594 484.111, 240.738 481.556, 228 485.550 M 299 485.540 C 299 485.837, 299.900 487.844, 301.001 490.002 C 302.556 493.051, 303.836 494.139, 306.751 494.893 C 308.813 495.427, 336.600 502.446, 368.500 510.491 C 455.521 532.437, 471.663 537.051, 485.500 543.937 C 492.569 547.455, 493.131 547.603, 490.328 545.209 C 480.769 537.046, 467.405 531.169, 439 522.637 C 405.641 512.618, 303.781 485, 300.185 485 C 299.533 485, 299 485.243, 299 485.540 M 952.954 492.750 C 950.800 494.675, 949.714 496.715, 949.334 499.549 C 947.939 509.949, 961.675 514.330, 966.490 505.020 C 968.615 500.910, 968.381 495.754, 965.927 492.635 C 962.999 488.912, 957.192 488.963, 952.954 492.750 M 953.923 493.923 C 950.103 497.743, 949.908 502.999, 953.455 506.545 C 956.670 509.761, 959.248 509.644, 963.211 506.102 C 965.896 503.703, 966.455 502.480, 966.455 498.996 C 966.455 491.307, 959.396 488.450, 953.923 493.923 M 1272 495.037 C 1263.397 500.157, 1262.284 501.718, 1261.498 509.764 C 1261.137 513.469, 1260.764 517.175, 1260.670 518 C 1260.535 519.190, 1261.534 519.439, 1265.500 519.205 C 1268.250 519.043, 1271.737 518.670, 1273.250 518.376 C 1278.773 517.302, 1276.059 520.747, 1268.134 524.870 C 1261.046 528.557, 1260.213 529.299, 1259.714 532.372 C 1259.410 534.248, 1259.411 537.648, 1259.717 539.929 C 1260.445 545.356, 1262.510 546.485, 1269.114 545.069 C 1276.068 543.578, 1279.541 541.561, 1280.779 538.297 C 1281.970 535.155, 1283.337 496.743, 1282.382 493.250 C 1281.542 490.180, 1279.598 490.514, 1272 495.037 M 1260 521.907 C 1258.075 522.249, 1249.382 524.885, 1240.682 527.765 C 1213.155 536.875, 1200.608 539.482, 1158 544.944 C 1107.041 551.476, 1042.511 557.143, 985.293 560.111 C 962.078 561.315, 929.266 560.545, 892.130 557.926 C 880.556 557.109, 858.678 557.988, 857.343 559.323 C 856.896 559.771, 879.668 561.720, 902.500 563.187 C 930.512 564.988, 986.408 564.729, 1014 562.670 C 1120.390 554.732, 1187.094 547.007, 1219.500 538.873 C 1234.673 535.064, 1257 527.801, 1265.199 524.007 C 1271.500 521.092, 1271.500 521.092, 1267.500 521.188 C 1265.300 521.241, 1261.925 521.564, 1260 521.907 M 841.822 528.913 C 840.350 530.078, 838.661 532.497, 838.070 534.288 C 836.865 537.938, 833 570.225, 833 576.638 C 833 584.921, 839.304 587.899, 852.851 586.014 C 872.433 583.291, 874.716 581.614, 875.241 569.570 C 875.500 563.641, 875.500 563.641, 862.032 561.769 C 854.625 560.740, 848.338 559.672, 848.061 559.395 C 846.805 558.138, 851.019 557.206, 860.849 556.566 C 877.460 555.483, 876.307 556.310, 875.806 545.831 C 875.278 534.787, 874.603 534.009, 862.500 530.495 C 849.246 526.647, 845.089 526.329, 841.822 528.913 M 638.500 531.861 C 633.171 535.152, 631.652 537.658, 631.201 543.903 C 630.678 551.130, 632.803 556.114, 637.875 559.561 C 642.205 562.503, 646.403 562.662, 650.696 560.044 C 655.588 557.061, 657.467 553.459, 657.467 547.061 C 657.467 540.469, 655.034 535.614, 650.048 532.253 C 645.989 529.518, 642.486 529.399, 638.500 531.861 M 1276.282 566.170 C 1262.979 571.374, 1246.162 575.725, 1224.500 579.568 C 1220.500 580.277, 1220.500 580.277, 1224 581.251 C 1231.995 583.476, 1259.375 578.534, 1273.050 572.397 C 1278.164 570.102, 1285.059 564.578, 1283.927 563.683 C 1283.692 563.498, 1280.252 564.617, 1276.282 566.170" stroke="none" fill="#000000" fill-rule="evenodd"/></svg>